<svg id="Layer_1" data-name="Layer 1" xmlns="http://www.w3.org/2000/svg" viewBox="0 0 196.52 44.24"><defs><style>.cls-1{fill:#e08a27;}</style></defs><path class="cls-1" d="M.83,18.32a6.55,6.55,0,0,1,2.69-4.38c1.56-1.19,4-1.55,7.13-1.55a13.25,13.25,0,0,1,7.1,1.66q2.66,1.63,2.66,5.6v7.76c0,1.61.1,3.36,1,4.34l-6.75,0a7.89,7.89,0,0,1-.83-2.45C14,30.49,9.74,32.23,7,32.23s-3.81-.5-5.1-1.54A5.22,5.22,0,0,1,0,26.47,4.9,4.9,0,0,1,3.48,21.7a37.26,37.26,0,0,1,9.94-2.12h0a4.9,4.9,0,0,0-.24-2,3,3,0,0,0-2.49-.91,2.86,2.86,0,0,0-3,2.12Zm12.59,4.73a15.62,15.62,0,0,0-1.65.24c-1.3.45-3.56.82-4.24,2.32a1.69,1.69,0,0,0,.15,1.88,2.83,2.83,0,0,0,2.79.38,3.87,3.87,0,0,0,1.94-1.38A6.1,6.1,0,0,0,13.42,23.05Z"/><path class="cls-1" d="M39.56,13.6,37.2,18.81s-1.22-.54-1.59-.63a2.76,2.76,0,0,0-2.12.63,4.41,4.41,0,0,0-1.28,3.42v9.54H25.06V17.89c0-.41,0-1.15-.06-2.21s-.09-1.92-.13-2.51h6.21l.13,2.12a4.38,4.38,0,0,1,3.9-2.61A10.92,10.92,0,0,1,39.56,13.6Z"/><path class="cls-1" d="M40.77,18.08V13.45h2.77V9.72L50.13,6.6v6.85h4.25V18H50.13v6a4,4,0,0,0,.57,2.51c.38.35.43.48,1.55.48a3.1,3.1,0,0,0,1.93-.82v4.83a9.15,9.15,0,0,1-4.64,1c-2.19,0-3.06-.09-4.48-1.36-1.23-1.1-1.52-3.3-1.52-5.06V18.08Z"/><path class="cls-1" d="M139.31,18.08V13.17h2.82V9.72L149,6.25v6.86h3.77V18H149v6a4,4,0,0,0,.57,2.51c.38.35.43.48,1.55.48a3.08,3.08,0,0,0,1.92-.82v4.83a9.09,9.09,0,0,1-4.63,1c-2.19,0-3.06-.09-4.48-1.36-1.23-1.1-1.52-3.3-1.52-5.06V18.08Z"/><path class="cls-1" d="M64,24c0,3,1.72,3.88,3.42,3.88A3.39,3.39,0,0,0,70.67,26l6.75.56a8.07,8.07,0,0,1-3,4c-1.65,1.23-4.05,1.71-6.91,1.71-6.95,0-10.81-3.11-10.81-9.34a10,10,0,0,1,3-7.67,12.09,12.09,0,0,1,15.76.14,10.42,10.42,0,0,1,2.76,7.2V24Zm-.14-3.41h7A3.36,3.36,0,0,0,67.43,17,3.45,3.45,0,0,0,63.87,20.54Z"/><path class="cls-1" d="M123.24,24c0,3,1.72,3.88,3.41,3.88a3,3,0,0,0,3.08-1.68l6.91.37a8,8,0,0,1-3,4c-1.65,1.23-4.05,1.71-6.91,1.71-6.95,0-10.8-3.11-10.8-9.34a10,10,0,0,1,3-7.67,12.09,12.09,0,0,1,15.76.14,10.38,10.38,0,0,1,2.76,7.2V24Zm-.15-3.41h7A3.37,3.37,0,0,0,126.65,17,3.45,3.45,0,0,0,123.09,20.54Z"/><path class="cls-1" d="M88.42,31.77h-7V16.24L81.3,13h6.06l.18,2.86c1.16-1.9,4-3.09,6.77-3.09,3,0,4.48.93,5.59,3.22,1.27-2.29,3.61-3.22,6.48-3.22a6.35,6.35,0,0,1,4.73,1.71c1.38,1.32,1.33,3.26,1.38,5.64V31.77h-6.76V22.09c0-2.54-.74-4-2.84-4-1.36,0-2.65,1.2-2.65,3.7v9.94H93.48V21.89c0-2.07-.67-3.66-2.5-3.66s-2.61.92-2.61,3.86Z"/><path class="cls-1" d="M170.78,13.6l-1.84,5s-1.75-.33-2.12-.42a2.76,2.76,0,0,0-2.12.63,4.41,4.41,0,0,0-1.27,3.42v9.54h-7.16V17.89c0-.41,0-1.15-.06-2.21s-.09-1.92-.13-2.51H163l.11,2c1.09-1.46,2.23-2.49,3.72-2.49A8.83,8.83,0,0,1,170.78,13.6Z"/><path class="cls-1" d="M171.19,17l1.51-4.05-1.1-.67a10.25,10.25,0,0,0-4.79-1.14,4.79,4.79,0,0,0-.77.07L156.08,0h8.5l15.26,17.29,3.67-4.16H192l-8,8.94,8.58,9.72h-8.25l-4.48-5.05-15.63,17.5H156L175.67,22l-4.48-5"/><path class="cls-1" d="M196.52,14.9a1.77,1.77,0,0,1-.15.73,1.68,1.68,0,0,1-.38.56,1.58,1.58,0,0,1-.56.36,1.65,1.65,0,0,1-.66.13,1.8,1.8,0,0,1-.71-.13,1.68,1.68,0,0,1-.56-.38,1.85,1.85,0,0,1-.36-.57,1.78,1.78,0,0,1-.13-.7,2,2,0,0,1,.14-.74,1.79,1.79,0,0,1,.38-.56,1.79,1.79,0,0,1,1.24-.49,1.65,1.65,0,0,1,.66.13,1.74,1.74,0,0,1,.56.36,1.82,1.82,0,0,1,.53,1.3Zm-.39,0a1.64,1.64,0,0,0-.1-.6,1.49,1.49,0,0,0-.29-.47,1.37,1.37,0,0,0-1-.41,1.42,1.42,0,0,0-.55.11,1.28,1.28,0,0,0-.43.3,1.33,1.33,0,0,0-.29.47,1.64,1.64,0,0,0-.11.6,1.56,1.56,0,0,0,.1.57,1.37,1.37,0,0,0,.27.47,1.22,1.22,0,0,0,.43.31,1.34,1.34,0,0,0,.58.12,1.17,1.17,0,0,0,.53-.11,1.32,1.32,0,0,0,.44-.3,1.39,1.39,0,0,0,.29-.47A1.55,1.55,0,0,0,196.13,14.9Zm-1.72,1h-.32v-2h.75a.9.9,0,0,1,.54.13.52.52,0,0,1,.18.44.47.47,0,0,1-.15.39.73.73,0,0,1-.37.15l.56.87h-.37l-.51-.85h-.31Zm.37-1.12H195l.15,0a.32.32,0,0,0,.1-.1.35.35,0,0,0,0-.17.22.22,0,0,0-.05-.14.27.27,0,0,0-.1-.08l-.14,0h-.54v.58Z"/></svg>